<svg xmlns="http://www.w3.org/2000/svg" width="17" height="14">
    <path fill="#FFF" fill-rule="evenodd" d="M15.969 1.075c-.634.365-1.336.631-2.084.774-.598-.621-1.45-1.008-2.393-1.008-1.812 0-3.28 1.429-3.28 3.19 0 .25.029.493.085.726-2.726-.133-5.142-1.403-6.76-3.332-.282.47-.444 1.018-.444 1.603 0 1.107.58 2.083 1.459 2.654-.537-.017-1.043-.161-1.485-.4v.04c0 1.545 1.131 2.833 2.63 3.128-.275.072-.564.112-.864.112-.212 0-.416-.021-.618-.058.418 1.267 1.629 2.189 3.063 2.216-1.121.855-2.536 1.364-4.072 1.364-.265 0-.526-.015-.783-.044 1.452.905 3.175 1.433 5.028 1.433 6.032 0 9.331-4.86 9.331-9.075l-.011-.413c.643-.448 1.2-1.01 1.639-1.649-.588.254-1.219.426-1.883.502.677-.395 1.196-1.02 1.442-1.763z"/>
</svg>
